<svg width="512" height="512" viewBox="0 0 512 512" fill="none" xmlns="http://www.w3.org/2000/svg">
<path d="M357.151 89.2297C358.717 90.1903 360.076 91.451 361.153 92.9393C362.229 94.4277 363 96.1142 363.421 97.9017C363.843 99.6893 363.907 101.543 363.609 103.355C363.311 105.167 362.658 106.903 361.687 108.462C359.713 111.61 356.576 113.853 352.958 114.703C349.34 115.552 345.533 114.939 342.364 112.997C336.122 109.069 329.621 105.569 322.906 102.52C319.549 101.114 316.329 99.6621 312.927 98.392C307.762 106.241 301.067 112.967 293.242 118.168C281.707 125.827 268.17 129.913 254.324 129.913C240.479 129.913 226.941 125.827 215.407 118.168C207.582 112.967 200.886 106.241 195.721 98.392C177.907 105.013 161.332 114.581 146.689 126.696C150.95 135.06 153.422 144.22 153.946 153.593C154.904 167.298 151.745 180.976 144.875 192.873C137.938 204.792 127.655 214.412 115.301 220.541C106.811 224.748 97.549 227.172 88.0863 227.663C87.6781 230.384 87.3152 233.242 86.907 236.054C86.0008 242.683 85.5612 249.367 85.5916 256.057C85.5727 262.717 86.0122 269.37 86.907 275.969C87.3152 278.827 87.6781 281.548 88.0863 284.27C97.5428 284.765 106.801 287.172 115.301 291.346C127.643 297.555 137.917 307.214 144.875 319.15C151.705 331.071 154.878 344.737 153.999 358.448C153.12 372.159 148.228 385.308 139.931 396.259C138.861 397.813 137.487 399.133 135.893 400.142C134.299 401.15 132.517 401.825 130.655 402.126C128.793 402.428 126.889 402.348 125.058 401.894C123.228 401.439 121.508 400.619 120.003 399.481C118.498 398.344 117.239 396.914 116.301 395.277C115.364 393.64 114.768 391.83 114.549 389.957C114.33 388.083 114.493 386.185 115.027 384.376C115.562 382.567 116.458 380.885 117.66 379.431C122.626 372.857 125.559 364.973 126.096 356.752C126.598 348.507 124.64 340.298 120.472 333.166C116.288 326.012 110.131 320.217 102.737 316.474C95.2158 312.789 86.7757 311.401 78.4704 312.482C75.0464 312.884 71.5945 312.01 68.7745 310.027C65.9546 308.044 63.9645 305.091 63.1846 301.733C61.3697 294.364 59.9764 286.898 59.0117 279.371C57.9709 271.643 57.4556 263.854 57.4695 256.057C57.4598 248.23 57.975 240.41 59.0117 232.652C59.9467 225.265 61.2945 217.936 63.0486 210.699C63.8016 207.293 65.8017 204.291 68.6555 202.285C71.5094 200.279 75.0104 199.414 78.4704 199.858C86.7934 200.876 95.232 199.425 102.737 195.685C110.168 191.974 116.337 186.151 120.472 178.948C124.523 171.874 126.435 163.776 125.976 155.636C125.518 147.497 122.707 139.665 117.887 133.091C115.557 130.356 114.366 126.831 114.56 123.244C114.754 119.657 116.319 116.281 118.93 113.814C130.198 103.202 142.647 93.9183 156.033 86.1453C169.249 78.517 183.296 72.4294 197.899 68.0021C201.275 66.8965 204.944 67.0931 208.183 68.5533C211.422 70.0136 213.999 72.6319 215.407 75.8944C218.662 83.5546 224.065 90.1082 230.965 94.7634C236.143 98.206 242.019 100.461 248.171 101.367C254.322 102.274 260.599 101.808 266.55 100.005C272.501 98.2022 277.98 95.1056 282.594 90.9374C287.209 86.7691 290.845 81.6322 293.242 75.8944C294.584 72.7019 297.058 70.1173 300.188 68.6358C303.318 67.1543 306.885 66.8802 310.205 67.866C318.486 70.3487 326.593 73.3793 334.472 76.9376C342.28 80.5086 349.855 84.5687 357.151 89.0936V89.2297ZM150.726 422.748C149.161 421.788 147.801 420.527 146.725 419.038C145.649 417.55 144.878 415.864 144.456 414.076C144.034 412.289 143.971 410.435 144.268 408.623C144.566 406.811 145.219 405.075 146.19 403.516C148.156 400.358 151.293 398.107 154.915 397.257C158.536 396.407 162.347 397.027 165.513 398.98C171.859 402.932 178.449 406.477 185.244 409.594C188.6 411 192.138 412.406 195.631 413.722C200.833 405.904 207.522 399.184 215.316 393.946C226.839 386.258 240.381 382.155 254.233 382.155C268.086 382.155 281.628 386.258 293.151 393.946C300.945 399.184 307.634 405.904 312.836 413.722C321.724 410.531 330.289 406.507 338.418 401.702C346.666 396.923 354.509 391.477 361.868 385.418C357.608 377.054 355.136 367.893 354.611 358.521C353.673 344.803 356.83 331.116 363.683 319.195C370.641 307.259 380.914 297.6 393.256 291.391C401.757 287.218 411.015 284.811 420.471 284.315C420.88 281.594 421.242 278.872 421.651 276.015C422.505 269.395 422.975 262.731 423.057 256.057C423.014 249.399 422.574 242.75 421.741 236.145C421.333 233.333 420.97 230.475 420.562 227.753C408.979 227.111 397.738 223.599 387.849 217.534C377.96 211.47 369.733 203.042 363.91 193.009C363.764 192.687 363.582 192.382 363.365 192.102C356.736 180.172 353.725 166.57 354.7 152.957C355.674 139.345 360.593 126.31 368.854 115.447C369.965 113.984 371.353 112.755 372.939 111.829C374.524 110.903 376.277 110.299 378.097 110.05C379.916 109.802 381.767 109.914 383.543 110.381C385.319 110.848 386.986 111.66 388.448 112.771C389.911 113.881 391.14 115.269 392.066 116.855C392.992 118.441 393.596 120.194 393.845 122.014C394.093 123.833 393.981 125.684 393.514 127.46C393.047 129.236 392.235 130.903 391.125 132.365C386.165 138.943 383.233 146.825 382.688 155.044C382.125 163.04 383.89 171.027 387.768 178.041C387.768 178.041 388.04 178.449 388.176 178.585C392.325 185.755 398.493 191.545 405.911 195.232C413.416 198.971 421.855 200.422 430.178 199.405C433.582 198.965 437.028 199.801 439.851 201.753C442.674 203.705 444.673 206.633 445.464 209.973C447.252 217.347 448.645 224.812 449.637 232.335C450.688 240.198 451.203 248.124 451.179 256.057C451.191 263.839 450.675 271.613 449.637 279.326C448.707 286.759 447.359 294.134 445.6 301.415C444.848 304.831 442.853 307.846 440.003 309.874C437.154 311.902 433.652 312.8 430.178 312.392C421.905 311.284 413.489 312.668 406.007 316.369C398.525 320.07 392.317 325.918 388.176 333.166C384.146 340.248 382.234 348.339 382.668 356.476C383.102 364.614 385.864 372.455 390.626 379.068C392.975 381.759 394.192 385.254 394.023 388.821C393.854 392.389 392.311 395.753 389.718 398.209C367.417 419.538 340.343 435.229 310.75 443.976C307.374 445.114 303.693 444.933 300.445 443.469C297.198 442.005 294.624 439.367 293.242 436.083C290 428.415 284.594 421.858 277.684 417.214C270.745 412.657 262.625 410.228 254.324 410.228C246.023 410.228 237.903 412.657 230.965 417.214C224.055 421.858 218.648 428.415 215.407 436.083C214.048 439.263 211.572 441.835 208.447 443.314C205.322 444.793 201.763 445.077 198.443 444.112C190.065 441.654 181.866 438.623 173.904 435.04C165.917 431.456 158.174 427.349 150.726 422.748Z" fill="#C6DAFF"/>
<path d="M174.04 204.122C176.722 201.525 180.309 200.074 184.042 200.074C187.775 200.074 191.361 201.525 194.043 204.122C196.661 206.756 198.13 210.319 198.13 214.033C198.13 217.746 196.661 221.309 194.043 223.943L161.748 256.057L193.907 288.125C195.214 289.421 196.254 290.961 196.966 292.658C197.678 294.356 198.049 296.177 198.057 298.017C198.066 299.858 197.712 301.682 197.015 303.386C196.319 305.089 195.293 306.639 193.998 307.947C192.702 309.254 191.162 310.294 189.465 311.006C187.767 311.718 185.946 312.089 184.106 312.097C182.265 312.106 180.441 311.752 178.737 311.055C177.033 310.358 175.484 309.333 174.176 308.037L132.674 266.671L131.857 265.945C129.242 263.318 127.774 259.763 127.774 256.057C127.774 252.351 129.242 248.796 131.857 246.169L174.04 204.122ZM314.605 223.943C311.987 221.309 310.518 217.746 310.518 214.033C310.518 210.319 311.987 206.756 314.605 204.122C317.287 201.525 320.873 200.074 324.606 200.074C328.339 200.074 331.926 201.525 334.608 204.122L376.791 246.169C379.406 248.796 380.874 252.351 380.874 256.057C380.874 259.763 379.406 263.318 376.791 265.945L334.608 308.083C331.967 310.735 328.381 312.23 324.638 312.239C320.896 312.247 317.303 310.769 314.65 308.128C311.998 305.488 310.503 301.902 310.494 298.159C310.486 294.416 311.964 290.823 314.605 288.171L346.9 256.057L314.605 223.943ZM269.882 193.78C270.709 192.136 271.853 190.671 273.248 189.47C274.643 188.269 276.262 187.356 278.011 186.783C279.761 186.21 281.606 185.988 283.441 186.13C285.276 186.272 287.065 186.776 288.705 187.611C290.372 188.377 291.867 189.472 293.1 190.83C294.333 192.188 295.279 193.781 295.881 195.514C296.483 197.247 296.728 199.084 296.601 200.914C296.475 202.744 295.98 204.529 295.146 206.163L238.766 318.425C236.976 321.502 234.081 323.783 230.671 324.804C227.26 325.825 223.588 325.51 220.401 323.922C217.215 322.334 214.751 319.594 213.512 316.256C212.273 312.918 212.35 309.234 213.728 305.951L269.882 193.78Z" fill="#C6DAFF"/>
</svg>
