<svg data-v-fde0c5aa="" xmlns="http://www.w3.org/2000/svg" viewBox="0 0 300 300" class="iconLeft"><defs data-v-fde0c5aa=""></defs><rect data-v-fde0c5aa="" fill="#181A1B" x="0" y="0" width="300px" height="300px" class="logo-background-square"></rect><defs data-v-fde0c5aa=""></defs><g data-v-fde0c5aa="" id="584a2c3a-901c-4719-937c-8943398dff82" fill="#FFFFFF" transform="matrix(2.0553399317252756,0,0,2.0553399317252756,95.14119281847272,129.84739232225616)"><path d="M8.26 4.27L8.26 3.09L11.62 3.09L11.62 4.27L10.64 4.27L10.64 12.28L11.62 12.28L11.62 13.45L8.26 13.45L8.26 12.28L9.30 12.28L9.30 8.55L3.30 8.55L3.30 12.28L4.34 12.28L4.34 13.45L0.98 13.45L0.98 12.28L1.96 12.28L1.96 4.27L0.98 4.27L0.98 3.09L4.34 3.09L4.34 4.27L3.30 4.27L3.30 7.40L9.30 7.40L9.30 4.27L8.26 4.27ZM13.19 9.91L13.19 9.91Q13.19 9.07 13.46 8.38Q13.72 7.69 14.19 7.19Q14.66 6.70 15.31 6.43Q15.96 6.17 16.74 6.17L16.74 6.17Q17.53 6.17 18.18 6.43Q18.83 6.70 19.30 7.19Q19.76 7.68 20.02 8.37Q20.28 9.06 20.28 9.90L20.28 9.90Q20.28 10.73 20.02 11.42Q19.76 12.11 19.30 12.61Q18.83 13.11 18.18 13.39Q17.53 13.67 16.74 13.67L16.74 13.67Q15.94 13.67 15.29 13.39Q14.64 13.12 14.18 12.62Q13.71 12.13 13.45 11.44Q13.19 10.75 13.19 9.91ZM14.53 9.91L14.53 9.91Q14.53 10.52 14.71 11.01Q14.88 11.50 15.19 11.85Q15.49 12.20 15.89 12.38Q16.29 12.57 16.74 12.57L16.74 12.57Q17.21 12.57 17.62 12.39Q18.03 12.20 18.33 11.86Q18.63 11.51 18.80 11.02Q18.97 10.53 18.97 9.91L18.97 9.91Q18.97 9.27 18.80 8.77Q18.63 8.27 18.33 7.94Q18.03 7.60 17.62 7.43Q17.21 7.26 16.74 7.26L16.74 7.26Q16.29 7.26 15.89 7.43Q15.49 7.60 15.19 7.94Q14.88 8.27 14.71 8.77Q14.53 9.27 14.53 9.91ZM23.71 4.09L23.71 6.37L25.37 6.37L25.37 7.40L23.69 7.40L23.67 11.49Q23.67 11.91 23.77 12.17Q23.86 12.43 24.08 12.53Q24.29 12.63 24.55 12.63L24.55 12.63Q24.84 12.63 25.06 12.57Q25.28 12.52 25.54 12.40L25.54 12.40L25.83 13.25Q25.50 13.43 25.14 13.52Q24.78 13.62 24.29 13.62L24.29 13.62Q23.82 13.62 23.48 13.51Q23.13 13.40 22.90 13.13Q22.66 12.87 22.54 12.42Q22.43 11.97 22.43 11.30L22.43 11.30L22.45 7.40L21.32 7.40L21.32 6.37L22.46 6.37L22.46 4.68L23.71 4.09ZM32.47 5.91Q32.47 5.30 32.25 5.00Q32.03 4.70 31.77 4.54Q31.51 4.38 31.19 4.30Q30.88 4.21 30.56 4.21L30.56 4.21Q30.04 4.21 29.65 4.33Q29.26 4.45 29.01 4.66Q28.75 4.86 28.62 5.13Q28.49 5.41 28.49 5.71L28.49 5.71Q28.49 6.16 28.65 6.44Q28.81 6.71 29.06 6.88Q29.31 7.05 29.60 7.14Q29.90 7.24 30.17 7.33L30.17 7.33L31.55 7.79Q32.18 7.98 32.65 8.24Q33.13 8.49 33.45 8.84Q33.77 9.18 33.94 9.63Q34.10 10.08 34.10 10.68L34.10 10.68Q34.10 11.32 33.84 11.87Q33.58 12.41 33.11 12.82Q32.63 13.22 31.98 13.45Q31.33 13.68 30.55 13.68L30.55 13.68Q29.75 13.68 29.18 13.50Q28.62 13.32 28.23 13.01Q27.84 12.71 27.61 12.32Q27.38 11.93 27.25 11.52L27.25 11.52L26.73 11.52L26.73 10.34L28.45 10.34Q28.45 11.10 28.61 11.42Q28.77 11.73 29.06 11.94Q29.35 12.15 29.74 12.25Q30.14 12.36 30.62 12.36L30.62 12.36Q31.08 12.36 31.46 12.25Q31.83 12.14 32.09 11.93Q32.35 11.72 32.49 11.43Q32.63 11.13 32.63 10.75L32.63 10.75Q32.63 10.34 32.46 10.05Q32.29 9.75 32.01 9.55Q31.74 9.34 31.41 9.21Q31.09 9.08 30.79 8.99L30.79 8.99L29.29 8.57Q28.80 8.42 28.39 8.18Q27.99 7.95 27.70 7.62Q27.41 7.28 27.25 6.83Q27.09 6.38 27.09 5.80L27.09 5.80Q27.09 5.20 27.32 4.68Q27.56 4.16 28.01 3.77Q28.46 3.38 29.11 3.16Q29.76 2.94 30.60 2.94L30.60 2.94Q31.16 2.94 31.63 3.07Q32.09 3.20 32.47 3.44Q32.85 3.67 33.14 4.00Q33.43 4.33 33.63 4.73L33.63 4.73L34.15 4.73L34.15 5.91L32.47 5.91ZM34.59 7.55L34.59 6.37L36.83 6.37L36.83 7.55L36.50 7.55L37.74 12.07L39.44 6.37L40.50 6.37L42.12 12.05L43.42 7.55L43.00 7.55L43.00 6.37L45.25 6.37L45.25 7.55L44.64 7.55L42.70 13.56L41.52 13.56L39.92 7.91L38.32 13.56L37.13 13.56L35.20 7.55L34.59 7.55ZM50.51 13.45L50.51 12.80Q50.11 13.17 49.62 13.41Q49.13 13.65 48.51 13.65L48.51 13.65Q47.99 13.65 47.55 13.49Q47.12 13.32 46.81 13.04Q46.49 12.76 46.32 12.38Q46.14 12.00 46.14 11.58L46.14 11.58Q46.14 11.13 46.28 10.78Q46.41 10.43 46.63 10.18Q46.85 9.92 47.15 9.74Q47.45 9.57 47.77 9.46Q48.10 9.36 48.44 9.31Q48.77 9.27 49.08 9.27L49.08 9.27Q49.57 9.27 49.91 9.30Q50.24 9.33 50.52 9.39L50.52 9.39L50.52 8.80Q50.52 8.43 50.42 8.15Q50.31 7.88 50.11 7.69Q49.91 7.51 49.63 7.42Q49.36 7.33 49.01 7.33L49.01 7.33Q48.69 7.33 48.40 7.38Q48.10 7.42 47.85 7.50Q47.59 7.57 47.38 7.66Q47.16 7.75 47.01 7.85L47.01 7.85L46.59 6.97Q46.85 6.81 47.15 6.67Q47.45 6.53 47.78 6.43Q48.11 6.33 48.46 6.27Q48.80 6.21 49.14 6.21L49.14 6.21Q49.75 6.21 50.24 6.36Q50.74 6.51 51.08 6.82Q51.42 7.12 51.60 7.60Q51.79 8.07 51.79 8.74L51.79 8.74L51.78 12.28L52.57 12.28L52.57 13.45L50.51 13.45ZM48.79 12.58L48.79 12.58Q49.04 12.58 49.29 12.52Q49.55 12.46 49.77 12.36Q50.00 12.25 50.19 12.11Q50.38 11.97 50.51 11.82L50.51 11.82L50.52 10.22L49.04 10.22Q48.67 10.22 48.37 10.30Q48.06 10.38 47.84 10.54Q47.62 10.70 47.50 10.93Q47.37 11.16 47.37 11.46L47.37 11.46Q47.37 11.74 47.48 11.95Q47.58 12.16 47.77 12.30Q47.95 12.44 48.21 12.51Q48.47 12.58 48.79 12.58ZM53.72 7.55L53.72 6.37L55.98 6.37L55.98 6.96Q56.43 6.61 56.96 6.41Q57.50 6.20 58.06 6.20L58.06 6.20Q58.76 6.20 59.34 6.46Q59.92 6.72 60.34 7.19Q60.76 7.66 61.00 8.32Q61.23 8.98 61.23 9.78L61.23 9.78Q61.23 10.64 60.97 11.34Q60.71 12.04 60.25 12.55Q59.79 13.05 59.15 13.33Q58.52 13.61 57.76 13.61L57.76 13.61Q57.22 13.61 56.80 13.50Q56.38 13.38 55.99 13.21L55.99 13.21L55.99 15.50L57.10 15.50L57.10 16.67L53.74 16.67L53.74 15.50L54.71 15.50L54.71 7.55L53.72 7.55ZM57.73 7.32L57.73 7.32Q57.24 7.32 56.78 7.52Q56.33 7.72 55.99 8.07L55.99 8.07L55.99 11.90Q56.22 12.13 56.64 12.32Q57.06 12.50 57.69 12.50L57.69 12.50Q58.13 12.50 58.53 12.33Q58.93 12.16 59.24 11.82Q59.55 11.48 59.73 10.99Q59.92 10.49 59.92 9.83L59.92 9.83Q59.92 9.23 59.74 8.76Q59.57 8.30 59.27 7.98Q58.97 7.66 58.58 7.49Q58.18 7.32 57.73 7.32ZM62.84 4.27L62.84 3.09L70.26 3.09L70.26 6.02L68.86 6.02L68.86 4.27L65.16 4.27L65.16 7.60L68.72 7.60L68.72 8.75L65.16 8.75L65.16 12.28L66.20 12.28L66.20 13.45L62.84 13.45L62.84 12.28L63.82 12.28L63.82 4.27L62.84 4.27ZM76.85 4.27L76.85 3.09L80.21 3.09L80.21 4.27L79.45 4.27L76.64 8.16L79.57 12.28L80.21 12.28L80.21 13.45L76.85 13.45L76.85 12.28L78.11 12.28L75.90 9.19L73.67 12.28L74.88 12.28L74.88 13.45L71.52 13.45L71.52 12.28L72.19 12.28L75.15 8.16L72.36 4.27L71.52 4.27L71.52 3.09L74.88 3.09L74.88 4.27L73.88 4.27L75.90 7.11L77.94 4.27L76.85 4.27Z"></path></g><defs data-v-fde0c5aa=""></defs><g data-v-fde0c5aa="" id="41bb52cf-6873-4b76-a366-97093c2b0417" stroke="none" fill="#C6DAFF" transform="matrix(0.5087016604225354,0,0,0.5087016604225354,36.64259965327446,124.57132562157933)"><path d="M72.67 13.22a3.07 3.07 0 0 1 1 4.24 3.11 3.11 0 0 1-4.26 1 36 36 0 0 0-4.29-2.31c-.74-.31-1.45-.63-2.2-.91a15.4 15.4 0 0 1-4.34 4.36 15.51 15.51 0 0 1-17.16 0 15.4 15.4 0 0 1-4.34-4.36 37.4 37.4 0 0 0-10.81 6.24 14.9 14.9 0 0 1 1.6 5.93 15.2 15.2 0 0 1-2 8.66 15.53 15.53 0 0 1-6.52 6.1 15.3 15.3 0 0 1-6 1.57c-.09.6-.17 1.23-.26 1.85A31.5 31.5 0 0 0 12.8 50a32 32 0 0 0 .29 4.39c.09.63.17 1.23.26 1.83a15.45 15.45 0 0 1 6 1.56 15.73 15.73 0 0 1 6.52 6.13 15.44 15.44 0 0 1-1.09 17 3.08 3.08 0 1 1-4.91-3.71 9.3 9.3 0 0 0 1.86-5 9.2 9.2 0 0 0-1.24-5.2 9.5 9.5 0 0 0-3.91-3.68 9.4 9.4 0 0 0-5.35-.88 3.09 3.09 0 0 1-3.37-2.37 44 44 0 0 1-.92-4.93A38 38 0 0 1 6.6 50a38.6 38.6 0 0 1 .34-5.16A44 44 0 0 1 7.83 40a3.08 3.08 0 0 1 3.4-2.39 9.43 9.43 0 0 0 5.35-.92A9.3 9.3 0 0 0 20.49 33a9.29 9.29 0 0 0-.57-10.11 3.09 3.09 0 0 1 .23-4.25 44.6 44.6 0 0 1 8.18-6.1 44 44 0 0 1 9.23-4 3.14 3.14 0 0 1 3.86 1.74 9.5 9.5 0 0 0 3.43 4.16 9.3 9.3 0 0 0 13.73-4.16 3.1 3.1 0 0 1 3.74-1.77 43 43 0 0 1 5.35 2 45 45 0 0 1 5 2.68ZM27.16 86.75a3.07 3.07 0 0 1-1-4.24 3.1 3.1 0 0 1 4.26-1 39 39 0 0 0 4.35 2.34c.74.31 1.52.62 2.29.91a15.8 15.8 0 0 1 4.34-4.36 15.46 15.46 0 0 1 17.16 0 15.8 15.8 0 0 1 4.34 4.36 33 33 0 0 0 5.64-2.65 38.5 38.5 0 0 0 5.17-3.59 14.9 14.9 0 0 1-1.6-5.93 15.3 15.3 0 0 1 2-8.67 15.73 15.73 0 0 1 6.52-6.13 15.45 15.45 0 0 1 6-1.56c.09-.6.17-1.2.26-1.83a38 38 0 0 0 .31-4.4 37 37 0 0 0-.29-4.39c-.09-.62-.17-1.25-.26-1.85a15.43 15.43 0 0 1-12.49-7.66 1 1 0 0 0-.12-.2A15.49 15.49 0 0 1 75.25 19a3.08 3.08 0 1 1 4.91 3.73 9.33 9.33 0 0 0-1.86 5 9.15 9.15 0 0 0 1.12 5.07s.06.09.09.12a9.3 9.3 0 0 0 3.91 3.67 9.43 9.43 0 0 0 5.35.92 3.06 3.06 0 0 1 3.37 2.33 47 47 0 0 1 .92 4.93A38.6 38.6 0 0 1 93.4 50a38 38 0 0 1-.34 5.13 44 44 0 0 1-.89 4.87 3.11 3.11 0 0 1-3.4 2.42A9.25 9.25 0 0 0 79.51 67a9.38 9.38 0 0 0 .54 10.12 3.05 3.05 0 0 1-.2 4.22 42.7 42.7 0 0 1-17.41 10.09 3.11 3.11 0 0 1-3.86-1.74 9.44 9.44 0 0 0-3.43-4.16 9.38 9.38 0 0 0-10.3 0 9.44 9.44 0 0 0-3.43 4.16 3.12 3.12 0 0 1-3.74 1.77 42 42 0 0 1-5.41-2 44 44 0 0 1-5.11-2.71"></path><path d="M32.3 38.55a3.17 3.17 0 0 1 4.41 0 3.1 3.1 0 0 1 0 4.37L29.59 50l7.09 7.07a3.09 3.09 0 1 1-4.35 4.39l-9.15-9.12-.18-.16a3.09 3.09 0 0 1 0-4.36ZM63.29 42.92a3.1 3.1 0 0 1 0-4.37 3.17 3.17 0 0 1 4.41 0l9.3 9.27a3.09 3.09 0 0 1 0 4.36l-9.3 9.29a3.11 3.11 0 0 1-4.41-4.39L70.41 50ZM53.43 36.27a3.08 3.08 0 0 1 4.15-1.36A3 3 0 0 1 59 39L46.57 63.75A3.09 3.09 0 0 1 41.05 61Z"></path></g></svg>